<?xml version="1.0" standalone="no"?>
<!DOCTYPE svg PUBLIC "-//W3C//DTD SVG 20010904//EN"
 "http://www.w3.org/TR/2001/REC-SVG-20010904/DTD/svg10.dtd">
<svg version="1.0" xmlns="http://www.w3.org/2000/svg"
 width="1280.000000pt" height="989.000000pt" viewBox="0 0 1280.000000 989.000000"
 preserveAspectRatio="xMidYMid meet">
<metadata>
Created by potrace 1.15, written by Peter Selinger 2001-2017
</metadata>
<g transform="translate(0.000000,989.000000) scale(0.100000,-0.100000)"
fill="#000000" stroke="none">
<path d="M1626 7738 c-19 -200 -48 -747 -62 -1170 l-7 -208 82 0 81 0 1 43 2
42 7 -40 c12 -68 -23 830 -40 1030 l-9 100 5 -125 c3 -69 11 -262 19 -430 8
-168 14 -357 13 -420 -1 -92 -3 -75 -9 85 -23 590 -58 1155 -70 1155 -4 0 -10
-28 -13 -62z"/>
<path d="M1557 6263 c-5 -8 -24 -996 -36 -1908 -6 -370 -8 -440 -9 -245 -1
151 3 538 8 860 5 322 11 745 14 940 l4 355 -8 -285 c-11 -359 -30 -1589 -30
-1908 l0 -241 -32 -22 c-66 -44 -209 -195 -155 -163 8 5 8 2 -2 -9 -16 -20
-25 -22 -16 -4 4 6 -3 1 -14 -12 -23 -25 -28 -47 -9 -35 7 4 8 3 4 -5 -4 -6
-12 -9 -17 -5 -11 6 -56 -90 -87 -186 -46 -143 -55 -350 -22 -511 22 -106 47
-179 61 -179 4 0 13 -10 19 -22 11 -22 10 -22 -4 -4 -25 31 -19 11 19 -65 20
-38 40 -67 45 -64 5 3 12 0 16 -6 5 -8 3 -9 -6 -4 -8 5 -11 3 -8 -6 3 -8 10
-14 16 -14 5 0 14 -4 19 -9 5 -5 2 -6 -6 -1 -9 5 -12 3 -9 -6 3 -8 10 -14 16
-14 5 0 14 -4 19 -9 5 -5 3 -6 -4 -2 -22 12 -14 -10 9 -30 22 -19 23 -19 8 1
-11 15 -7 14 13 -4 28 -25 38 -43 12 -21 -8 7 -15 8 -15 3 0 -15 137 -144 206
-195 72 -53 197 -119 290 -154 79 -30 258 -74 294 -73 14 0 -18 9 -70 20 -263
55 -503 179 -650 335 -32 34 -23 28 29 -19 233 -212 524 -321 893 -334 378
-14 765 97 1098 315 140 91 232 166 375 304 l120 115 1420 5 c781 2 1168 1
860 -2 -308 -4 -946 -8 -1419 -9 l-858 -1 -121 -117 c-143 -137 -235 -212
-374 -304 -203 -134 -442 -232 -688 -283 -66 -14 -110 -25 -99 -25 43 -2 221
40 338 80 295 98 556 264 825 524 l116 112 1413 7 1412 6 0 -32 c1 -44 32
-133 47 -133 6 0 15 -4 20 -9 5 -5 3 -6 -4 -2 -28 16 -11 -14 28 -49 60 -54
112 -75 189 -75 76 0 125 20 188 75 40 35 62 73 25 44 -16 -13 -17 -12 -4 3 7
10 17 15 22 12 12 -7 49 77 54 124 4 34 4 34 -6 -6 -13 -55 -19 -51 -12 10 5
46 6 47 39 44 41 -3 32 11 -11 17 l-30 4 31 2 c21 0 37 -6 50 -21 10 -12 13
-18 7 -14 -19 11 -16 -9 4 -25 15 -12 16 -12 8 1 -8 13 -7 13 8 1 18 -15 23
-26 7 -16 -5 3 -10 2 -10 -3 0 -20 168 -181 229 -221 66 -43 145 -72 190 -70
14 0 -2 7 -36 14 -73 16 -148 54 -201 102 -36 33 -36 33 13 -3 28 -20 75 -49
105 -63 51 -24 65 -26 182 -25 94 0 131 4 144 15 16 12 17 12 9 -1 -4 -8 8 3
28 25 38 42 49 67 20 44 -16 -13 -17 -12 -4 3 7 10 17 15 22 13 12 -8 41 53
36 78 -4 19 -4 19 -6 -4 0 -14 -7 -34 -15 -44 -12 -17 -12 -13 -1 30 7 28 17
49 23 48 14 -3 -2 61 -22 92 -17 25 -33 36 -20 13 4 -7 -4 -3 -17 9 -13 12
-40 29 -59 38 -23 11 -26 14 -10 10 49 -11 592 -2 1220 20 85 3 286 10 445 15
499 17 1099 41 1123 46 64 13 -5 22 -260 32 -556 24 -758 31 -1123 42 -203 6
-509 15 -680 20 -170 5 -400 11 -510 12 l-200 3 -6 -90 -5 -90 -4 90 -4 90 -6
-90 -6 -90 -2 93 -2 92 -35 0 -35 0 -2 -97 -2 -98 -6 100 c-6 118 -18 107 -23
-20 l-3 -90 -2 103 -2 102 -35 0 -35 0 0 -106 0 -106 56 4 c40 3 51 2 37 -5
-10 -5 -31 -21 -48 -36 -19 -17 -24 -19 -15 -6 14 18 14 19 -1 7 -9 -7 -22
-26 -29 -42 -8 -19 -22 -32 -39 -36 -45 -10 -51 -13 -49 -26 2 -7 -4 -12 -12
-13 -25 0 -22 -32 6 -54 32 -25 44 -26 70 -6 18 14 17 15 -8 4 -22 -10 -32 -9
-53 5 -14 9 -25 24 -24 34 0 13 2 13 9 -4 15 -38 52 -40 95 -5 16 13 18 13 8
1 -9 -13 -6 -26 17 -69 l30 -54 -43 6 c-24 3 -52 9 -62 12 -19 6 -19 6 -2 -5
10 -6 43 -14 74 -17 47 -5 55 -4 48 8 -8 13 3 7 35 -19 3 -3 -28 -2 -68 0 -92
7 -174 46 -257 123 -33 31 -54 53 -47 50 24 -12 11 10 -35 60 -25 28 -42 43
-37 35 7 -13 5 -13 -9 -1 -19 15 -23 26 -6 15 7 -4 10 -1 7 7 -3 8 -9 13 -14
12 -5 -1 -8 52 -6 118 l3 119 -95 0 c-52 0 -97 3 -99 8 -3 4 36 7 86 6 91 0
91 0 12 3 -76 4 -82 6 -120 41 l-40 37 30 -35 30 -35 -38 34 c-36 34 -47 48
-27 36 6 -3 10 -2 10 3 0 21 -186 185 -286 252 -397 265 -964 409 -1461 371
-87 -7 -176 -16 -198 -21 l-40 -9 45 4 c307 31 524 28 745 -10 440 -75 850
-259 1090 -490 l80 -77 -80 72 c-391 349 -1051 555 -1642 511 -503 -37 -886
-207 -1273 -566 -46 -42 -57 -50 -30 -21 107 114 359 304 493 372 26 13 47 27
47 29 0 10 -98 -45 -200 -112 -109 -72 -207 -152 -353 -285 l-84 -78 -650 0
-649 0 -27 56 c-15 30 -31 52 -36 49 -5 -3 -13 0 -17 6 -4 8 -3 9 4 5 30 -18
7 17 -35 55 -93 82 -225 121 -339 100 -96 -18 -172 -61 -307 -175 l-126 -106
-57 0 c-56 0 -56 0 -51 28 3 15 11 46 18 70 12 37 11 49 -4 91 -14 42 -17 89
-17 324 l0 274 51 7 c31 4 56 3 64 -4 7 -6 21 -7 31 -3 30 11 -40 23 -111 18
l-60 -4 50 9 c55 9 152 2 161 -11 3 -5 -1 -9 -9 -9 -8 0 -32 -12 -53 -26 -38
-26 -39 -26 -19 -3 l20 24 -27 -24 c-37 -32 -62 -101 -55 -147 8 -45 40 -94
82 -123 32 -22 95 -44 103 -36 2 2 -15 9 -38 15 -23 6 -56 26 -74 43 -17 18
-20 22 -6 11 39 -34 65 -44 109 -44 51 0 88 14 126 48 l30 27 -31 -33 c-17
-18 -48 -39 -70 -47 -21 -8 -31 -14 -21 -15 10 0 30 6 46 14 32 17 101 90 101
108 0 6 -7 3 -15 -8 -14 -18 -14 -17 -5 9 13 37 13 88 -1 124 -8 22 -8 25 2
16 6 -6 15 -38 19 -70 7 -54 7 -55 9 -15 1 45 -19 104 -40 117 -8 6 -10 4 -4
-6 8 -12 6 -12 -8 0 -18 15 -23 26 -7 16 24 -15 7 16 -22 41 -62 52 -148 84
-241 91 -77 5 -86 8 -90 27 -4 17 -5 16 -6 -5 -1 -26 0 -26 89 -32 90 -6 193
-40 221 -73 6 -7 -13 0 -43 16 -62 33 -155 54 -226 49 l-50 -4 -6 50 c-3 28
-6 217 -6 420 0 380 -14 1315 -26 1693 l-6 212 -79 0 c-43 0 -80 -3 -82 -7z
m-47 -2553 c-12 -6 -14 -23 -10 -82 l5 -73 6 75 c4 50 6 10 7 -118 0 -188 0
-192 -21 -203 -12 -6 -38 -25 -57 -43 -34 -30 -34 -30 -10 -2 14 16 39 37 55
47 17 11 24 19 17 19 -22 0 -104 -83 -123 -125 -25 -54 -24 -147 1 -203 11
-24 24 -41 29 -38 5 4 13 1 17 -5 4 -8 3 -9 -4 -5 -28 17 -9 -15 25 -43 49
-40 63 -40 21 0 l-33 31 43 -33 c38 -29 57 -50 32 -34 -6 4 -9 -17 -8 -57 l1
-63 7 55 7 55 1 -51 2 -51 98 -6 c53 -4 241 -7 417 -7 336 0 635 -9 635 -19 0
-3 -64 -3 -142 1 -169 8 -1009 15 -1002 9 2 -3 253 -8 556 -11 398 -5 553 -11
556 -19 2 -6 9 -8 15 -4 7 3 8 2 4 -3 -5 -5 -14 -9 -19 -9 -6 0 -13 -6 -16
-14 -3 -9 0 -11 9 -6 8 5 11 4 6 -1 -5 -5 -14 -9 -19 -9 -6 0 -13 -6 -16 -14
-3 -9 0 -11 9 -6 8 4 -6 -13 -31 -40 -170 -179 -441 -245 -719 -174 -138 35
-325 140 -401 225 -14 16 -17 22 -7 15 25 -19 21 2 -5 25 -13 12 -18 13 -13 4
17 -30 -29 18 -48 49 -25 43 -14 39 13 -5 12 -19 24 -33 27 -31 6 7 -48 82
-57 80 -4 -1 -7 3 -6 10 0 7 -14 49 -32 94 -17 46 -39 118 -47 160 -12 65 -14
69 -10 23 3 -30 7 -66 10 -80 l6 -25 -11 25 c-22 49 -31 172 -19 250 11 76 57
236 65 228 2 -3 -5 -31 -16 -63 -11 -32 -20 -65 -19 -74 0 -9 13 24 30 72 16
49 26 94 22 100 -4 6 -1 7 7 2 10 -6 12 -4 7 9 -4 10 -3 15 3 11 5 -3 14 3 19
14 14 26 14 34 -1 25 -21 -12 10 25 76 93 33 34 62 60 65 57 3 -3 -1 -9 -9
-14z m4341 -100 c513 -51 977 -235 1241 -491 46 -44 77 -77 69 -73 -9 4 -12 2
-9 -7 3 -8 10 -13 16 -12 5 1 17 -6 27 -17 16 -18 5 -18 -517 -13 -293 3 -535
8 -538 11 -3 2 233 2 523 -1 291 -2 527 -3 525 -1 -7 6 -327 13 -678 13 l-345
1 1 62 c1 62 1 62 -3 8 -2 -30 -8 -58 -12 -63 -4 -4 -6 19 -4 50 2 32 -2 83
-11 113 -18 69 -13 78 9 14 8 -28 13 -36 11 -19 -7 45 -44 127 -55 120 -5 -3
-13 0 -17 6 -5 8 -3 9 6 4 8 -5 11 -3 8 6 -3 8 -10 14 -15 14 -6 0 -15 4 -20
9 -5 5 -3 6 5 2 21 -12 13 10 -10 30 -19 15 -20 16 -9 2 19 -25 8 -22 -15 4
-10 12 -13 18 -6 14 19 -11 14 5 -10 31 -28 29 -47 30 -22 1 10 -12 -2 -4 -29
19 -85 74 -237 140 -374 163 -76 12 130 12 258 0z m-211 -80 c135 -27 257 -90
335 -171 33 -34 54 -58 46 -54 -9 5 -12 3 -9 -6 3 -8 11 -13 17 -11 7 1 10 -2
7 -7 -3 -5 3 -29 13 -53 23 -50 28 -44 7 7 -8 19 -13 35 -10 35 15 0 47 -105
51 -174 l6 -79 -54 6 c-30 4 -150 7 -268 7 l-214 0 7 42 c10 61 45 116 91 144
22 13 36 24 32 24 -15 0 -51 -22 -82 -49 l-30 -26 25 29 c51 58 170 87 201 49
10 -12 11 -15 1 -9 -18 11 -6 -41 18 -74 13 -18 26 -25 49 -24 26 2 31 -2 31
-21 0 -28 36 -75 57 -75 28 0 53 31 53 64 -1 37 -23 81 -42 81 -7 0 -12 8 -10
17 1 9 -14 29 -35 46 -48 37 -83 55 -83 43 0 -5 10 -12 23 -15 12 -3 36 -18
52 -33 21 -18 23 -21 5 -9 -14 9 -42 24 -63 34 l-39 17 21 19 c22 20 29 70 11
81 -6 4 -23 4 -39 0 -23 -5 -31 -14 -39 -45 -7 -28 -6 -41 2 -45 6 -3 -11 -3
-39 0 -28 2 -40 1 -26 -3 21 -6 19 -9 -20 -19 -24 -6 -64 -29 -89 -49 -25 -21
-36 -28 -25 -15 11 13 40 37 64 53 25 15 41 28 35 28 -14 0 -54 -28 -96 -69
-36 -33 -52 -61 -26 -45 7 4 8 3 4 -5 -4 -6 -11 -9 -16 -6 -12 8 -28 -24 -41
-84 -10 -48 -13 -51 -42 -53 -27 -1 -24 -2 13 -8 l45 -7 -41 -1 c-31 -2 -45 3
-60 20 -15 19 -16 20 -1 9 9 -7 17 -9 17 -3 0 16 -177 180 -262 243 -43 32
-106 70 -140 87 -84 39 -194 66 -216 53 -13 -8 -8 -10 23 -11 89 -1 212 -50
317 -127 65 -47 152 -123 142 -123 -3 0 -28 20 -56 45 -82 74 -185 137 -276
168 -74 25 -96 29 -161 25 l-76 -5 55 24 c91 41 280 100 370 116 128 23 363
21 480 -3z m-688 -200 c35 -10 72 -26 83 -35 11 -8 14 -13 5 -10 -8 2 -26 -5
-40 -16 -20 -17 -21 -18 -4 -10 67 33 121 4 279 -151 l100 -98 -227 0 c-126 0
-228 2 -228 4 0 2 8 10 17 17 11 10 14 10 9 2 -6 -10 37 -13 200 -13 114 0
205 3 202 6 -4 3 -92 5 -198 4 l-191 -1 11 22 c7 12 15 42 19 67 5 41 10 47
37 54 17 4 39 17 49 28 17 19 17 21 0 40 -21 24 -54 26 -81 5 -24 -19 -31 -18
-38 1 -3 8 -2 12 4 9 6 -3 10 -3 10 2 0 13 -19 38 -28 38 -4 0 -23 12 -41 28
-39 32 -33 33 51 7z m-330 -10 c-39 -37 -62 -95 -63 -162 -1 -52 -2 -57 -9
-31 -8 36 0 96 18 130 15 27 15 36 0 31 -6 -2 -13 -13 -14 -24 -2 -10 -7 -39
-12 -63 -9 -42 -1 -98 23 -153 7 -17 -4 -18 -146 -18 l-154 1 65 61 c36 33
100 87 143 119 43 32 75 59 70 59 -12 -1 -116 -81 -215 -167 l-89 -78 188 -5
188 -6 -197 -2 c-109 -1 -198 0 -198 2 0 19 356 303 367 292 3 -2 13 4 24 15
10 10 22 19 26 19 4 0 -3 -9 -15 -20z m183 -10 c16 0 37 -5 45 -10 19 -13 -65
-2 -95 12 -20 9 -20 9 -1 -6 11 -9 31 -16 44 -16 19 0 22 -4 17 -21 -7 -21 27
-69 48 -69 5 0 -1 9 -14 20 l-24 20 30 -15 c17 -8 37 -15 46 -15 9 0 24 -10
35 -22 10 -12 13 -18 7 -14 -10 5 -13 -3 -13 -31 -1 -21 -7 -49 -15 -63 -18
-31 -19 -43 -2 -34 6 4 3 -2 -7 -14 -17 -20 -29 -22 -131 -22 -102 0 -114 2
-131 22 -10 12 -13 18 -5 13 9 -5 12 -3 9 6 -3 8 -11 14 -18 14 -7 0 -15 7
-17 15 -3 10 -2 11 4 3 4 -6 8 22 8 65 0 43 4 86 9 96 7 15 6 17 -4 11 -9 -5
-11 -4 -6 4 4 6 11 9 15 6 5 -2 16 4 25 14 10 11 31 25 47 31 16 7 26 17 22
23 -3 6 4 3 18 -6 13 -9 37 -17 54 -17z m-2257 -98 c23 -13 42 -25 42 -27 0
-3 -19 5 -42 17 -37 20 -58 23 -143 23 -91 0 -104 -2 -147 -28 -26 -15 -50
-32 -53 -37 -3 -5 17 5 46 23 50 31 57 32 153 32 92 0 106 -3 150 -27 53 -31
60 -33 51 -18 -12 19 2 10 31 -22 16 -18 21 -26 12 -19 -10 7 -18 9 -18 3 0
-13 25 -33 33 -25 5 5 47 -78 47 -93 0 -2 -42 -3 -92 -2 l-93 2 87 5 c74 5 86
8 78 21 -6 10 -10 11 -10 3 0 -9 -20 -13 -67 -13 l-68 0 -15 48 c-8 26 -20 47
-27 47 -6 0 -15 4 -20 9 -5 5 -3 6 5 2 6 -4 12 -3 12 2 0 13 -68 72 -83 72 -7
0 3 -9 21 -20 43 -27 41 -32 -4 -9 -26 13 -42 15 -54 9 -10 -5 -20 -7 -22 -4
-14 13 -15 -26 -2 -45 14 -20 74 -58 74 -47 0 3 -13 12 -30 21 -16 8 -35 25
-41 38 -11 21 -10 20 13 -3 14 -14 38 -33 52 -43 24 -17 26 -21 13 -35 -8 -10
-17 -24 -20 -32 -5 -13 -6 -13 -6 1 -1 8 5 21 12 29 10 12 9 12 -5 1 -10 -7
-18 -20 -18 -27 0 -9 -12 -14 -37 -14 -21 0 -76 -3 -122 -7 l-84 -6 6 34 c3
19 9 43 13 53 6 15 4 17 -7 11 -8 -5 -11 -5 -6 1 5 5 14 9 19 9 6 0 13 6 16
14 3 9 0 11 -9 5 -25 -15 11 25 44 48 53 38 97 48 187 45 63 -3 96 -9 128 -25z
m5495 -465 c18 -8 39 -22 47 -32 12 -15 12 -17 1 -10 -11 6 -13 4 -6 -11 12
-25 12 -102 1 -133 -6 -18 -5 -22 5 -16 8 5 -1 -8 -20 -28 -35 -38 -55 -40
-104 -15 -21 11 -18 18 10 22 45 7 17 66 -43 91 -18 7 -35 23 -39 35 -6 18 -9
20 -16 9 -7 -11 -9 -11 -9 -1 0 7 7 15 15 18 8 4 15 10 15 16 0 5 -6 6 -12 2
-7 -4 -4 3 7 16 22 25 69 49 98 50 10 0 32 -6 50 -13z m-4288 -67 c-56 -56
-83 -78 -55 -45 22 26 -5 16 -31 -11 -35 -38 -172 -143 -264 -204 -113 -73
-259 -143 -405 -195 -69 -24 -120 -44 -113 -44 6 -1 58 15 115 35 209 72 433
198 608 345 41 34 66 52 55 39 -67 -76 -295 -230 -460 -310 -520 -252 -1133
-242 -1533 24 -37 24 -78 57 -92 72 -14 15 4 4 40 -25 82 -65 258 -153 375
-186 238 -69 548 -74 823 -15 29 7 52 14 50 16 -3 2 -49 -6 -104 -17 -139 -29
-441 -37 -579 -15 -255 39 -466 134 -621 278 -34 32 -63 55 -66 53 -2 -3 -15
7 -29 22 -13 15 -17 22 -7 15 10 -8 18 -9 22 -3 4 6 -3 15 -14 21 -11 6 -20 8
-20 4 0 -3 -7 -1 -15 6 -8 7 -12 16 -9 21 3 5 1 9 -4 9 -5 0 -18 12 -27 28
-13 20 -5 15 31 -18 98 -91 225 -162 371 -207 81 -25 102 -27 263 -27 164 -1
180 1 255 26 100 34 188 86 274 161 l66 59 -66 -64 c-137 -131 -277 -188 -482
-196 -203 -7 -331 21 -506 113 -47 25 -77 38 -66 29 33 -26 156 -85 227 -110
104 -35 202 -47 345 -42 148 6 245 32 352 95 64 38 211 166 211 185 0 5 -4 6
-10 3 -16 -10 -11 1 7 16 14 12 16 12 9 -1 -4 -8 2 -4 13 9 23 25 28 47 9 35
-7 -4 -8 -3 -4 5 4 6 12 9 17 6 5 -4 14 5 21 20 l11 25 516 0 c284 0 521 1
526 2 6 2 -231 5 -525 8 l-535 5 545 3 544 2 -59 -60z m3358 48 c22 -10 27
-19 25 -43 -2 -41 5 -50 41 -53 26 -2 33 2 42 25 5 14 7 40 4 57 -5 23 -4 27
4 16 7 -10 11 -11 11 -2 0 6 7 12 15 12 8 0 15 -9 15 -20 0 -11 4 -20 9 -20 6
0 6 -12 1 -31 -13 -44 -21 -49 -15 -8 l6 34 -14 -35 c-8 -19 -18 -44 -22 -54
-7 -15 -5 -17 6 -11 33 21 -20 -41 -60 -70 -81 -57 -222 -44 -287 27 l-29 32
37 -31 c49 -42 98 -56 174 -51 50 3 72 10 106 33 23 17 44 37 46 45 3 8 -7 2
-22 -13 -36 -39 -85 -57 -153 -57 -68 0 -134 27 -158 64 -10 14 -21 24 -25 21
-5 -3 -12 0 -16 6 -4 8 -3 9 4 5 7 -4 12 -2 12 3 0 6 -6 11 -14 11 -16 0 -33
77 -23 102 3 7 6 -3 7 -22 1 -19 5 -44 10 -55 6 -14 7 -7 3 22 -10 72 -8 73
120 73 69 0 123 -5 140 -12z"/>
<path d="M1736 6050 c11 -536 24 -1343 26 -1635 2 -213 4 -263 6 -150 5 215
-18 1696 -28 1870 -6 105 -7 88 -4 -85z"/>
<path d="M7568 2984 c-5 -4 -8 -54 -8 -111 l0 -103 125 0 125 0 0 105 0 105
-82 0 c-46 0 -99 3 -118 6 -19 3 -38 2 -42 -2z"/>
<path d="M9180 2959 c124 -4 383 -12 575 -19 193 -6 440 -15 550 -20 110 -5
277 -11 370 -14 152 -4 145 -3 -65 8 -400 23 -1375 57 -1550 54 -60 0 -8 -4
120 -9z"/>
</g>
</svg>
